<svg id="baseline-lock-24px" xmlns="http://www.w3.org/2000/svg" width="26" height="26" viewBox="0 0 26 26">
  <path id="Tracé_9" data-name="Tracé 9" d="M0,0H26V26H0Z" fill="none"/>
  <path id="Tracé_10" data-name="Tracé 10" d="M21.256,8.882H20.023V6.63A5.917,5.917,0,0,0,13.86,1,5.917,5.917,0,0,0,7.7,6.63V8.882H6.465A2.373,2.373,0,0,0,4,11.134v11.26a2.373,2.373,0,0,0,2.465,2.252H21.256a2.373,2.373,0,0,0,2.465-2.252V11.134A2.373,2.373,0,0,0,21.256,8.882Zm-7.4,10.134A2.373,2.373,0,0,1,11.4,16.764a2.373,2.373,0,0,1,2.465-2.252,2.373,2.373,0,0,1,2.465,2.252A2.373,2.373,0,0,1,13.86,19.016ZM17.681,8.882H10.04V6.63A3.67,3.67,0,0,1,13.86,3.139,3.67,3.67,0,0,1,17.681,6.63Z" transform="translate(-0.86 -0.215)" fill="#505050"/>
</svg>
