<svg xmlns="http://www.w3.org/2000/svg" width="500.912" height="269.806" viewBox="0 0 500.912 269.806">
  <g id="logo-no-text" transform="translate(-52.202 0)">
    <path id="Tracé_1" data-name="Tracé 1" d="M251.032,252.933v.049l71.975-52.306-2.938-9.058-51.844,37.663,8.742-26.881-7.7-5.585L253.995,243.8a78.655,78.655,0,0,1-28.314-78.677l-7.941-5.755a87.723,87.723,0,0,0,33.292,93.563m47.789-51.456-51.893-37.663h28.266l2.938-9.058h-49.44a78.986,78.986,0,0,1,66.1-51.262l3.06-9.3a87.984,87.984,0,0,0-78.726,60.562L291.1,207.062ZM250.765,84.966h.51c-.34-3.958-1.724-6.314-4.2-7.236-8.96-3.375-13.769-10.757-13.769-19.014,0-9.4,6-15.25,13.574-15.25,10.709,0,14.594,12.506,26.833,12.506,4.4,0,8.013-2.6,8.013-4.808V49.853h-2.307c-15.371,0-17.727-15.468-32.539-15.468-12.627,0-22.656,10-22.656,24.332,0,14.448,11.17,26.226,26.541,26.226m-141.838,100.9h55.147v-.461a36.477,36.477,0,0,1-14.546-8.6h-40.6c-20.665,0-26.76-1.894-36.983-12.967H212.058a92.727,92.727,0,0,1,2.283-9.033H52.2l6.265,7.431c16.44,19.475,22.583,23.627,50.485,23.627M278.521,44.778a12.663,12.663,0,0,0,12.7-12.554c0-6.168-2.817-8.645-5.755-8.645a4.606,4.606,0,0,0-.316,9.2c-2.38,3.618-5.974,4.857-10.612,4.517a4.6,4.6,0,0,0-1.117-6.411,4.7,4.7,0,0,0-2.647-.85,4.918,4.918,0,0,0-4.565,4.905c.024,5.148,4.857,9.835,12.312,9.835m-45.215,198.1H166.867c-18.261,0-25.157-1.53-33.608-9.568H120.753c13.4,15.177,20.859,18.625,46.138,18.625h75.593a95.1,95.1,0,0,1-9.179-9.058m-30.572-12.991v-.461a36.287,36.287,0,0,1-14.57-8.6H147.586c-18.285,0-25.157-1.506-33.608-9.519H101.473c13.4,15.128,20.835,18.577,46.138,18.577Zm-19.305-22.025v-.51a36.769,36.769,0,0,1-14.546-8.523H128.257c-18.261,0-25.157-1.53-33.608-9.568H82.143c13.4,15.177,20.859,18.6,46.138,18.6ZM321.162,57.818c-4.517,0-9.082,5.512-10.757,13.55,2.768.194,5.561.51,8.281.923,1.8-7.018,4.929-10.272,7.528-10.709a5.628,5.628,0,0,0-5.051-3.764m-18.528,36.23L275.145,178.7l7.7,5.585,19.766-60.926,8.766,26.857h9.519L305.645,103.2A78.861,78.861,0,0,1,374.8,150.215h9.762a87.979,87.979,0,0,0-81.883-56.167m49.028,4.565V89.362a102.3,102.3,0,0,0-49.052-13.4,102.462,102.462,0,0,0-49.1,13.38v9.276a95.21,95.21,0,0,1,98.152,0M257.977,80.935c2.331-1.068,4.687-2.088,7.091-3.011-1.166-3.5-3.375-7.5-7.5-7.5a4.966,4.966,0,0,0-4.4,3.594c1.918.728,3.473,2.38,4.808,6.921m4.954,168.986-7.916,5.755a87.435,87.435,0,0,0,99.221-2.7h.049L326.8,168.33h-9.543l19.791,60.926-22.85-16.585-7.7,5.609,39.97,29.043a78.361,78.361,0,0,1-83.534,2.6m23.7-177.655c2.744-.437,5.512-.7,8.3-.9-1.7-8.013-6.265-13.55-10.757-13.55-2.38,0-4.128,1.627-5.075,3.764,2.623.461,5.755,3.691,7.528,10.685m-16.391-8.4a5.38,5.38,0,0,0-4.857,3.57c1.943.267,4.59,1.87,6.508,8.159,2.525-.753,5.1-1.433,7.7-1.991-1.845-6.241-5.2-9.762-9.349-9.762m214.3,169.472H472.033c-8.426,8.013-15.323,9.568-33.584,9.568H372.011a91.84,91.84,0,0,1-9.155,9.033h75.593c25.254,0,32.661-3.424,46.089-18.6m-187.32-78.556-2.963,9.058h64.083l-22.85,16.61,2.938,9.033L378.47,160.39a78.549,78.549,0,0,1-23.409,80.256l3.035,9.3a87.685,87.685,0,0,0,28.1-95.238Zm236.129,9.058c-10.247,11.025-16.318,12.967-36.983,12.967h-40.6a36.676,36.676,0,0,1-14.57,8.6v.51h55.171c27.877,0,34.045-4.2,50.46-23.652l6.289-7.455H390.976c.9,2.963,1.651,6,2.258,9.058H533.348ZM293.722,27.537l8.936-6.508,8.96,6.508-3.4-10.515,8.936-6.508H306.082L302.658,0l-3.4,10.515h-11.1l8.985,6.508Zm210.1,183.75H491.314c-8.426,8.013-15.3,9.543-33.584,9.543H417.1a36.591,36.591,0,0,1-14.546,8.6v.51H457.73c25.279-.024,32.709-3.521,46.089-18.649m19.329-22.025H510.643c-8.451,8.013-15.323,9.568-33.608,9.568h-40.6a36.675,36.675,0,0,1-14.57,8.548v.51h55.171c25.279,0,32.709-3.448,46.114-18.625m-171-115.223a4.937,4.937,0,0,0-4.371-3.57c-4.128,0-6.362,3.982-7.5,7.5,2.4.923,4.759,1.918,7.066,3.011,1.287-4.59,2.89-6.265,4.808-6.945m-55.2-17.022a30.778,30.778,0,0,1,5.561,8.669l.121.17.121-.17a31.761,31.761,0,0,1,5.585-8.669,32.235,32.235,0,0,0-5.682-8.888,32.156,32.156,0,0,0-5.707,8.888m26.663-7.139v1.311c0,2.21,3.594,4.759,8.013,4.759,12.239,0,16.124-12.457,26.833-12.457,7.552,0,13.6,5.852,13.6,15.274,0,8.256-4.857,15.614-13.768,18.989-2.5.923-3.885,3.254-4.25,7.236h.559c15.371,0,26.541-11.777,26.541-26.226,0-14.327-10-24.332-22.656-24.332-14.813,0-17.168,15.468-32.539,15.468Zm-9.519-17.7a12.678,12.678,0,0,0,12.7,12.554c7.455,0,12.287-4.687,12.287-9.859a4.886,4.886,0,0,0-4.59-4.905,4.591,4.591,0,0,0-4.59,4.614,4.523,4.523,0,0,0,.85,2.647c-4.638.34-8.208-.9-10.587-4.517a4.606,4.606,0,0,0-.34-9.2c-2.914.049-5.731,2.55-5.731,8.669m-11.462-3.5a7.261,7.261,0,1,0,7.261,7.261,7.265,7.265,0,0,0-7.261-7.261m37.3,38.78a5.345,5.345,0,0,0-4.857-3.57c-4.152,0-7.5,3.5-9.349,9.762,2.6.559,5.172,1.238,7.7,1.991,1.918-6.314,4.541-7.916,6.508-8.183" transform="translate(0)" fill="#c20831"/>
  </g>
</svg>
