<svg xmlns="http://www.w3.org/2000/svg" width="485.156" height="77.911" viewBox="0 0 485.156 77.911">
  <g id="text" transform="translate(-0.055 -255.195)">
    <path id="Tracé_1" data-name="Tracé 1" d="M51.282,329.754H41.86V308.243h9.773v4.633s1.3-4.653,8.079-4.147v10.357s-7.261-1.051-8.429,2.414Zm201.738,0h-9.442V308.243h9.753v4.633s1.3-4.653,8.079-4.147v10.357s-7.261-1.051-8.429,2.414Zm-174.971-16s-3.8-.35-4.3,5c0,0,.156,4.3,3.971,4.477,0,0,3.64.35,3.971-4.322.019,0,.175-5-3.64-5.159m12.732,5.334c-.487,12.245-12.712,11.174-12.712,11.174-14.036.7-13.88-11.7-13.88-11.7.837-11.038,13.724-10.668,13.724-10.668,13.354,0,12.868,11.194,12.868,11.194m312.312-5.334s-3.8-.35-4.3,5c0,0,.156,4.3,3.971,4.477,0,0,3.621.35,3.971-4.322.02,0,.175-5-3.64-5.159m12.751,5.334c-.506,12.245-12.732,11.174-12.732,11.174-14.036.7-13.861-11.7-13.861-11.7.8-11.038,13.7-10.668,13.7-10.668,13.354,0,12.887,11.194,12.887,11.194M92.767,308.223H104.33l3.66,10.668,3.29-10.668h10.59l-7.767,17.4s-3.154,8.274-8.274,7.417H94.752v-6.229h6.95Zm46.293,5.684s-4.477-.681-4.633,5.023c0,0,0,4.614,4.127,4.614,0,0,3.8.175,4.127-4.458,0,0,.506-5.178-3.66-5.178m3.329-5.684h9.6v21.531h-9.6v-3.971c-2.8,4.477-8.585,3.971-8.585,3.971-10.065-1.051-8.955-11.388-8.955-11.388.35-11.349,9.753-10.843,9.753-10.843,4.127-.156,7.767,3.426,7.767,3.426Zm65.429,5.684s-4.458-.681-4.614,5.023c0,0,0,4.614,4.127,4.614,0,0,3.816.175,4.108-4.458,0,0,.526-5.178-3.621-5.178m3.309-5.684h9.6v21.531h-9.6v-3.971c-2.8,4.477-8.585,3.971-8.585,3.971-10.065-1.051-8.935-11.369-8.935-11.369.35-11.349,9.753-10.843,9.753-10.843,4.127-.156,7.767,3.426,7.767,3.426Zm165.081,21.531h-9.422V308.243h9.772v4.633s1.3-4.653,8.079-4.147v10.357s-7.281-1.051-8.429,2.414Zm-28.753-15.846s-4.458-.681-4.614,5.023c0,0,0,4.614,4.108,4.614,0,0,3.816.175,4.127-4.458.019,0,.506-5.178-3.621-5.178m3.29-5.684h9.6v21.531h-9.578v-3.971c-2.8,4.477-8.6,3.971-8.6,3.971-10.064-1.051-8.916-11.369-8.916-11.369.311-11.349,9.753-10.843,9.753-10.843,4.127-.156,7.767,3.426,7.767,3.426Zm-192.666-3.8h9.909v25.327H158.04Zm68.914,3.8h9.909v21.531h-9.909Zm0-4.3h9.909v2.842h-9.909Zm59.8,25.833V308.223h9.578v4.808a9.159,9.159,0,0,1,8.449-5.159,7.583,7.583,0,0,1,7.261,4.3s3.971-5.334,8.429-4.3a6.881,6.881,0,0,1,6.969,5.86l-.019,15.846h-10.24V318.346s-.506-3.271-2.8-2.9a2.845,2.845,0,0,0-2.8,2.57v11.719H301.493V318.891s.506-3.816-2.317-3.29c0,0-2.472-.35-2.978,2.745v11.369Zm156.672-20.83s-3.64-1.557-11.388-1.733c0,0-10.921-.156-11.233,11.875,0,0,0,10.162,12.225,10.668,0,0,7.923,0,10.415-3.621v-5.023s-2.492,1.557-7.261,1.557c0,0-5.626.35-5.626-4.5,0,0,.311-4.127,4.3-3.932a15.066,15.066,0,0,1,8.585,1.207ZM82.41,264.5s-2.628,4.555-2.628,5.49c0,.954.681,2.258-.117,2.609-.8.409-7.106,2.044-6.541-3.913-6.307,2.511-22.679,9.792-37.357,9.792-8.76,0-13.179,1.071-16.8-2.784-1.733-2.414-6.249-5.918-9.227.506-3.1,4.419-3.212,8.507-5.159,8.118-2.064-.389-2.978-4.653-3.543-9.792-2.18,7.281-.409,16.742,2.18,16.605,2.492,0,4.03-4.575,5.334-7.378,1.3-2.764,1.81-4.01,3.718-4.088,7.106.37-.35,7.767,22.582,6.677,10.668-1.071,24.412-3.212,33.717-9.773,1.733-1.441,2.161-1.81,2.628.934.584,3,1.83,4.185,5.042,3.932,3.173-.195,9.033-5.821,6.171-16.936m402.542-8.468c-1.149,2.005-3.679,6.677-4.945,7.4,0,3.446.584,25.541-.214,27.079,1.947-3.562,5.626-7.982,5.373-11.33-.214-3.309.35-21.589-.214-23.146m-30.369,4.789-5.743,4.049,3.329,3.115,5.159-4.653Z" fill="#c20831"/>
    <path id="Tracé_2" data-name="Tracé 2" d="M1082.082,1331.925c.35-2.044-2.18-4.886-5.062-4.185,0,2.258.7,4.322,1.849,4.555,1.148.214,2.862.37,3.212-.389m40.8,2.3c-4.01-2.278-16.275,2.258-19.915,4.3,5.237.584,19.8-.019,19.915-4.3m42.069-17.092s-2.18,2.764-2.862,3.835c-.681,1.09-.214,1.441-.35,3.329-.117,1.927.117,4.925-2.278,8.118.915.954,11.8,3.115,11.8,3.115l-5.626,6.7c-.8-.487-6.521.214-9.052.467-2.531.234-15.243,2.044-20.752,2.745a218.218,218.218,0,0,1-28.539.837c-10.22-.37-14.114-2.414-19.934-4.049,0,0-3.446,4.77-5.626,5.354-2.18.6-9.636,1.207-19.253-.818,2.979-.234,19.389-4.322,22.231-7.534-6.755.234-12.031-2.414-12.479-3.816-.467-1.441,1.713-4.555,2.842-6.7,1.168-2.141,4.127-7.631,5.957-7.534,3.329.234,6.541,6.229,8.137,10.629,1.479,2.141,6.307,5.373,10.084,4.419.681-.487,4.127-2.394,5.723-3.348l-.214-8.819c-.1-1.674-1.265-2.258-1.479-3.815-.234-1.557,1.6-5.139,4.01-9.325-.584,1.81,1.6,3.952,2.044,6.346.487,2.394-1.48,3.212-1.713,3.816s-.35,5.626-.117,10.629c14.445-6.95,17.287-5.976,20.4-3.816,3.1,2.141,1.947,6.424-3.329,10.629,3.426.467,14.892-.6,20.869-2.044-.467-.37-10.434-2.258-10.434-2.258.681-.234,3.407-5.49,3.407-5.49l17.657-.234c2.317,0,2.317-1.674,2.317-1.674l.117-4.536c0-1.207-.467-1.441-.8-4.185s4.594-6.677,4.594-6.677c-1.129,4.049.02,4.263,2.648,5.7m-105.434,20.246c-.1-1.538-1.285-3.621-5.354-3.407-4.01.156-8.488,4.477-10.22,6.775,1.616.1,11.953-.448,15.574-3.387m-13.763-19.448a8.971,8.971,0,0,1,2.219,1.343c.35,0-.234,1.966-2.317,3.134a59.422,59.422,0,0,1-.448,13.257c14.289-10.551,21.336-9.675,22.173-4.828.857,4.828-8.935,14.678-17.19,15.418-8.235.72-12.362-1.265-20.635-5.022,1.557.37,5.684-.195,10.337.545.35-1.09,2.219-3.056,3.777-4.3l-1.032-12.206c-.156-1.4-1.4-1.6-1.051-4.653.37-3.037,1.811-6.891,4.4-7.339a10.71,10.71,0,0,0-.234,4.653m-26.3-5.353c-.428.876-4.3,7.709-4.3,7.709.35,5.821,1.11,21.939-.526,25.677,3.621-4.808,5.334-8.858,5.334-10.629,0-.019-.1-21.784-.506-22.757m-16.489,23.3c-.234,1.538-.545,5.412,3.835,4.536,1.3-.9-.409-5.062-3.816-4.536m-.292-20.187c0,.526,2.414,1.071,2.57,2.511.156,1.421-.428,2.492-1.888,4.3l-.253,4.4s-.078,2.044.526,2.667c1.363.72,2.667-1.246,4.886-.448,3.64,1.324,1.46,7.261.681,10.24-.779,2.959-3.524,7.865-5.334,7.787-2.8-.136-3.854-2.336-4.614-6.541-2.083,1.791-13.082,5.918-18.319,5.821-5.256-.1-6.891-4.828-8.079-9.033-.6,1.869-5.412,9.383-14.192,9.286-8.76-.078-14.8-5.451-18.669-8.76l-.934.253c-.681,5.217-4.711,6.463-7.378,6.716-2.667.273-5.509-3.757-6.891-7.709-1.207.8-16.177,7.222-27.935,7.359-21.414.253-17.462-8.527-22.017-8.429-1.908.058-2.414.6-3.7,3.407-1.324,2.8-3.27,7.222-5.782,7.222-6.171,0-5.061-11.544-1.713-17.092,1.032-1.888,1.46-.8.934.253s-1.733,8.351.35,8.7c1.441.234,3.7-1.441,6.775-5.821,2.745-4.5,8.079-3.777,9.811-1.363,3.27,4.847,8.254,5.023,17.014,5.217,8.76.156,14.347-1.441,28.208-7.359a5.9,5.9,0,0,0,1.966,5.821c2.141,1.6,5.762,2.433,7.047-1.168L930,1328.712c-1.966-1.713-3.271-1.713-2.823-6.813,0-9.6,27.935-8.137,27.935-8.137,3.017,0,5.957-.448,6.229,2.141.487,5.918-5.276,9.85-10.687,11.486,1.655-.9,5.762-3.952,6.113-5.373.389-1.6-.195-2.239-1.733-2.141-1.538.078-21.9,1.966-21.9,1.966-1.129.175-.448,1.168-.448,1.168l18.3,12.809c8.273,4.3,14.8,1.441,18.494,0,3.7-1.421,3.621-3.757,3.7-5.451l.35-11.914c.934-.545,3.27-4.828,3.27-4.828l-.35,19.156c.1,2.239.35,6.015,3.017,6.366,5.918,1.012,17.618-4.808,20.46-6.989q.058-4.03-.175-8.059c0-1.246-1.966-1.713-1.966-3.212,0-1.518,3.874-7.982,4.711-8.974-.409,1.012.195,3.212.195,3.777m-131.968,2.55-5.684,4.477,3.8,1.966s3.621-3.037,5.159-2.842,3.8,2.141,3.8,2.141,4.984-4.3,5.665-4.478a9.487,9.487,0,0,0-3.271-2.511s-4.3,3.037-5.315,3.037c-1.032,0-4.146-1.791-4.146-1.791" transform="translate(-693.298 -1055.705)" fill="#c20831"/>
    <path id="Tracé_3" data-name="Tracé 3" d="M513.314,1353.317a37.367,37.367,0,0,1-6.074,3.465l3.66,2.239s4.263-2.511,5.159-2.141a30.017,30.017,0,0,1,3.212,1.908l5.86-3.115-2.764-2.511s-4.458,2.414-5.49,2.258c-1.032-.1-3.562-2.1-3.562-2.1M448.041,1324.7c-.467.876-4.322,7.709-4.322,7.709,1.207,7.164,3.173,22.582,1.538,26.32,3.621-4.808,4.984-9.831,4.984-11.641,0,0-1.81-21.394-2.2-22.387M404.4,1341.967l5.957-2.609c-.9-.6-7.436-.72-8.585-.6Zm28.558,5.354c-.253,1.5-.584,5.49,3.212,4.789,1.363-1.324.195-5.334-3.212-4.808m-48.843,3.971c-5.84.487-15.457,10.162-20.5,8.021-2.959-1.265-.234-7.67,1.83-9.325-1.733,6.229-1.733,5.49-.467,6.56,1.265,1.09,9.286-5.84,13.179-8.351s13.082-4.77,19.389-4.886a5.676,5.676,0,0,0-2.414-2.278,25.007,25.007,0,0,0-3.893-.7l3.1-6.346c6.891-1.4,21.433.954,25.229,1.908l-1.5,7.417a14.86,14.86,0,0,0-6.307,3.1c3.893,4.419,14.581,0,17.423-2.141.156-1.168,0-7.631,0-7.631,0-1.285-2.18-1.265-2.18-2.784s3.874-7.962,4.731-8.955c-.428.993.156,3.212.156,3.757s2.044.915,2.2,2.375c.175,1.4-.058,2.648-1.518,4.438l-.136,3.485s-.078,2.063.526,2.686c1.382.72,2.667-1.246,4.925-.448,3.621,1.3.8,7.826,0,10.765-.759,2.959-1.713,6.619-4.108,6.288-3.66-.565-3.232-3.329-4.01-7.534-2.044-.9-7.534,5.684-17.812,3.757-4.185-.779-7.222-2.511-11.525-6.444-1.09,1.246-10.941.993-16.313,3.271" transform="translate(-291.733 -1066.819)" fill="#c20831"/>
    <path id="Tracé_4" data-name="Tracé 4" d="M133.624,1329.3l-6.191,3.465,3.446,2.258,5.023-3.446Zm-99.5,2.395,3.893,1.538s-4.808,3.932-5.159,4.049-3.524-1.674-4.692-1.3c-1.149.37-3.893,3.348-3.893,3.348S20.6,1338,19.8,1337.768c1.947-1.071,4.808-4.3,5.392-4.886,2.278.954,4.575,2.278,5.256,2.025.7-.214,2.317-3.212,3.679-3.212M76.2,1357.489c.681,0,4.361-3.1,5.276-3,.915.117,3.893,2.531,3.893,2.531s-5.392,4.166-5.957,4.049c-.584-.117-3.212-2.258-3.816-2.141-.545.117-5.023,3.212-5.023,3.212l-4.808-2.122s5.159-4.419,5.957-4.555,3.679,1.791,4.477,2.025m30.252.117-4.594,2.414,2.278,2.842,4.808-3.115Z" transform="translate(-15.901 -1070.523)" fill="#c20831"/>
  </g>
</svg>
